<svg width="156" height="91" viewBox="0 0 156 91" fill="none" xmlns="http://www.w3.org/2000/svg">
<path d="M78.0625 64.25C78.0625 68.7083 77.1667 72.5417 75.375 75.75C73.5833 78.9167 71.125 81.5208 68 83.5625C64.9167 85.5625 61.3125 87.0417 57.1875 88C53.0625 88.9167 48.6875 89.375 44.0625 89.375H0V1.3125H40.3125C45.5208 1.3125 50.1458 1.77083 54.1875 2.6875C58.2708 3.5625 61.7083 4.91667 64.5 6.75C67.2917 8.58333 69.3958 10.8958 70.8125 13.6875C72.2708 16.4375 73 19.6875 73 23.4375C73 28.4375 71.6042 32.6667 68.8125 36.125C66.0625 39.5417 61.8542 41.8542 56.1875 43.0625C63.3125 43.8958 68.7292 46.1458 72.4375 49.8125C76.1875 53.4375 78.0625 58.25 78.0625 64.25ZM54.4375 25.9375C54.4375 21.9792 53.1667 19.1667 50.625 17.5C48.125 15.8333 44.3958 15 39.4375 15H18.4375V36.8125H39.5625C44.7708 36.8125 48.5417 35.9167 50.875 34.125C53.25 32.2917 54.4375 29.5625 54.4375 25.9375ZM59.5625 62.8125C59.5625 60.4792 59.1042 58.5208 58.1875 56.9375C57.2708 55.3542 56 54.0833 54.375 53.125C52.7917 52.1667 50.9167 51.4792 48.75 51.0625C46.625 50.6458 44.3125 50.4375 41.8125 50.4375H18.4375V75.6875H42.5C44.9167 75.6875 47.1667 75.5 49.25 75.125C51.3333 74.7083 53.125 74.0208 54.625 73.0625C56.1667 72.0625 57.375 70.7292 58.25 69.0625C59.125 67.3958 59.5625 65.3125 59.5625 62.8125ZM155.353 64C155.353 68 154.623 71.6458 153.165 74.9375C151.707 78.1875 149.436 80.9792 146.353 83.3125C143.311 85.6458 139.394 87.4583 134.603 88.75C129.853 90 124.186 90.625 117.603 90.625C111.769 90.625 106.623 90.1042 102.165 89.0625C97.7067 88.0208 93.8733 86.4792 90.665 84.4375C87.4983 82.3958 84.915 79.875 82.915 76.875C80.9567 73.8333 79.54 70.3542 78.665 66.4375L96.4775 63.5C96.9775 65.4583 97.7067 67.25 98.665 68.875C99.6233 70.5 100.936 71.9167 102.603 73.125C104.311 74.2917 106.415 75.2083 108.915 75.875C111.457 76.5 114.519 76.8125 118.103 76.8125C124.353 76.8125 129.123 75.875 132.415 74C135.748 72.0833 137.415 69.1042 137.415 65.0625C137.415 62.6458 136.748 60.6667 135.415 59.125C134.082 57.5833 132.311 56.3125 130.103 55.3125C127.894 54.3125 125.353 53.4792 122.478 52.8125C119.603 52.1458 116.603 51.5 113.478 50.875C110.978 50.2917 108.478 49.6875 105.978 49.0625C103.478 48.4375 101.082 47.6875 98.79 46.8125C96.54 45.9375 94.4358 44.8958 92.4775 43.6875C90.5192 42.4792 88.8108 41 87.3525 39.25C85.9358 37.4583 84.8108 35.375 83.9775 33C83.1858 30.625 82.79 27.8333 82.79 24.625C82.79 20.25 83.665 16.5 85.415 13.375C87.165 10.25 89.5817 7.70833 92.665 5.75C95.79 3.75 99.4983 2.29167 103.79 1.375C108.082 0.458333 112.769 0 117.853 0C123.603 0 128.519 0.458333 132.603 1.375C136.728 2.25 140.165 3.60417 142.915 5.4375C145.707 7.27083 147.894 9.58333 149.478 12.375C151.103 15.125 152.29 18.3542 153.04 22.0625L135.165 24.5C134.248 20.7083 132.373 17.8542 129.54 15.9375C126.748 14.0208 122.728 13.0625 117.478 13.0625C114.228 13.0625 111.519 13.3542 109.353 13.9375C107.228 14.4792 105.519 15.2292 104.228 16.1875C102.978 17.1458 102.082 18.2708 101.54 19.5625C100.998 20.8125 100.728 22.1458 100.728 23.5625C100.728 25.7292 101.248 27.5208 102.29 28.9375C103.332 30.3125 104.79 31.4792 106.665 32.4375C108.54 33.3542 110.769 34.1458 113.353 34.8125C115.978 35.4375 118.853 36.0833 121.978 36.75C124.728 37.3333 127.457 37.9583 130.165 38.625C132.873 39.25 135.457 40 137.915 40.875C140.373 41.75 142.665 42.8125 144.79 44.0625C146.915 45.3125 148.748 46.8542 150.29 48.6875C151.873 50.4792 153.103 52.625 153.978 55.125C154.894 57.625 155.353 60.5833 155.353 64Z" fill="white"/>
</svg>
