<svg width="59" height="34" viewBox="0 0 59 34" fill="none" xmlns="http://www.w3.org/2000/svg">
<path d="M29.2734 24.0938C29.2734 25.7656 28.9375 27.2031 28.2656 28.4062C27.5938 29.5938 26.6719 30.5703 25.5 31.3359C24.3438 32.0859 22.9922 32.6406 21.4453 33C19.8984 33.3438 18.2578 33.5156 16.5234 33.5156H0V0.492188H15.1172C17.0703 0.492188 18.8047 0.664062 20.3203 1.00781C21.8516 1.33594 23.1406 1.84375 24.1875 2.53125C25.2344 3.21875 26.0234 4.08594 26.5547 5.13281C27.1016 6.16406 27.375 7.38281 27.375 8.78906C27.375 10.6641 26.8516 12.25 25.8047 13.5469C24.7734 14.8281 23.1953 15.6953 21.0703 16.1484C23.7422 16.4609 25.7734 17.3047 27.1641 18.6797C28.5703 20.0391 29.2734 21.8438 29.2734 24.0938ZM20.4141 9.72656C20.4141 8.24219 19.9375 7.1875 18.9844 6.5625C18.0469 5.9375 16.6484 5.625 14.7891 5.625H6.91406V13.8047H14.8359C16.7891 13.8047 18.2031 13.4688 19.0781 12.7969C19.9688 12.1094 20.4141 11.0859 20.4141 9.72656ZM22.3359 23.5547C22.3359 22.6797 22.1641 21.9453 21.8203 21.3516C21.4766 20.7578 21 20.2812 20.3906 19.9219C19.7969 19.5625 19.0938 19.3047 18.2812 19.1484C17.4844 18.9922 16.6172 18.9141 15.6797 18.9141H6.91406V28.3828H15.9375C16.8438 28.3828 17.6875 28.3125 18.4688 28.1719C19.25 28.0156 19.9219 27.7578 20.4844 27.3984C21.0625 27.0234 21.5156 26.5234 21.8438 25.8984C22.1719 25.2734 22.3359 24.4922 22.3359 23.5547ZM58.2572 24C58.2572 25.5 57.9837 26.8672 57.4369 28.1016C56.89 29.3203 56.0384 30.3672 54.8822 31.2422C53.7416 32.1172 52.2728 32.7969 50.4759 33.2812C48.6947 33.75 46.5697 33.9844 44.1009 33.9844C41.9134 33.9844 39.9837 33.7891 38.3119 33.3984C36.64 33.0078 35.2025 32.4297 33.9994 31.6641C32.8119 30.8984 31.8431 29.9531 31.0931 28.8281C30.3587 27.6875 29.8275 26.3828 29.4994 24.9141L36.1791 23.8125C36.3666 24.5469 36.64 25.2188 36.9994 25.8281C37.3587 26.4375 37.8509 26.9688 38.4759 27.4219C39.1166 27.8594 39.9056 28.2031 40.8431 28.4531C41.7962 28.6875 42.9447 28.8047 44.2884 28.8047C46.6322 28.8047 48.4212 28.4531 49.6556 27.75C50.9056 27.0312 51.5306 25.9141 51.5306 24.3984C51.5306 23.4922 51.2806 22.75 50.7806 22.1719C50.2806 21.5938 49.6166 21.1172 48.7884 20.7422C47.9603 20.3672 47.0072 20.0547 45.9291 19.8047C44.8509 19.5547 43.7259 19.3125 42.5541 19.0781C41.6166 18.8594 40.6791 18.6328 39.7416 18.3984C38.8041 18.1641 37.9056 17.8828 37.0462 17.5547C36.2025 17.2266 35.4134 16.8359 34.6791 16.3828C33.9447 15.9297 33.3041 15.375 32.7572 14.7188C32.2259 14.0469 31.8041 13.2656 31.4916 12.375C31.1947 11.4844 31.0462 10.4375 31.0462 9.23438C31.0462 7.59375 31.3744 6.1875 32.0306 5.01562C32.6869 3.84375 33.5931 2.89062 34.7494 2.15625C35.9212 1.40625 37.3119 0.859375 38.9212 0.515625C40.5306 0.171875 42.2884 0 44.1947 0C46.3509 0 48.1947 0.171875 49.7259 0.515625C51.2728 0.84375 52.5619 1.35156 53.5931 2.03906C54.64 2.72656 55.4603 3.59375 56.0541 4.64062C56.6634 5.67188 57.1087 6.88281 57.39 8.27344L50.6869 9.1875C50.3431 7.76562 49.64 6.69531 48.5775 5.97656C47.5306 5.25781 46.0228 4.89844 44.0541 4.89844C42.8353 4.89844 41.8197 5.00781 41.0072 5.22656C40.2103 5.42969 39.5697 5.71094 39.0853 6.07031C38.6166 6.42969 38.2806 6.85156 38.0775 7.33594C37.8744 7.80469 37.7728 8.30469 37.7728 8.83594C37.7728 9.64844 37.9681 10.3203 38.3587 10.8516C38.7494 11.3672 39.2962 11.8047 39.9994 12.1641C40.7025 12.5078 41.5384 12.8047 42.5072 13.0547C43.4916 13.2891 44.5697 13.5312 45.7416 13.7812C46.7728 14 47.7962 14.2344 48.8119 14.4844C49.8275 14.7188 50.7962 15 51.7181 15.3281C52.64 15.6562 53.4994 16.0547 54.2962 16.5234C55.0931 16.9922 55.7806 17.5703 56.3587 18.2578C56.9525 18.9297 57.4134 19.7344 57.7416 20.6719C58.0853 21.6094 58.2572 22.7188 58.2572 24Z" fill="#0F0F0F"/>
</svg>
